<svg width="400" height="400" xmlns="http://www.w3.org/2000/svg">
 <!-- Created with Method Draw - http://github.com/duopixel/Method-Draw/ -->

 <g>
  <title>background</title>
  <rect fill="none" id="canvas_background" height="402" width="402" y="-1" x="-1"/>
  <g display="none" id="canvasGrid">
   <rect fill="url(#gridpattern)" stroke-width="0" y="0" x="0" height="100%" width="100%" id="svg_1"/>
  </g>
 </g>
 <g>
  <title>Layer 1</title>
  <g id="svg_2">
   <rect stroke="#dddddd" rx="50" id="svg_3" height="398.999995" width="259" y="-0.000001" x="70.5" stroke-width="3" fill="#ffffff"/>
   <g stroke="null" id="svg_34">
    <g stroke="null" transform="matrix(0.6691518087755656,0,0,0.6691518087755656,-512.149883575419,-511.84750910637615) " id="svg_9">
     <g stroke="null" id="svg_11">
      <path fill="#363ba0" stroke="null" id="svg_12" d="m1005.35246,1097.3924l0,-89.284l-20.64,0l0,-22.88l49.121,0l0,112.164l-28.481,0z"/>
     </g>
     <g stroke="null" id="svg_13">
      <path fill="#363ba0" stroke="null" id="svg_14" d="m1140.87246,1014.1884c0,9.76 -5.28,18.4 -14.08,23.201c12.319,5.119 20,15.84 20,28.32c0,20.16 -17.921,32.961 -45.921,32.961c-28.001,0 -45.921,-12.641 -45.921,-32.48c0,-12.801 8.32,-23.682 21.28,-28.801c-9.44,-5.281 -15.52,-14.24 -15.52,-24c0,-17.922 15.681,-29.281 40.001,-29.281c24.64,0 40.161,11.68 40.161,30.08zm-59.042,49.122c0,9.441 6.721,14.721 19.041,14.721c12.32,0 19.2,-5.119 19.2,-14.721c0,-9.279 -6.88,-14.561 -19.2,-14.561c-12.321,0 -19.041,5.281 -19.041,14.561zm2.881,-47.522c0,8.002 5.76,12.48 16.16,12.48c10.4,0 16.16,-4.479 16.16,-12.48c0,-8.318 -5.76,-12.959 -16.16,-12.959c-10.401,0 -16.16,4.641 -16.16,12.959z"/>
     </g>
     <g stroke="null" id="svg_15">
      <path fill="#363ba0" stroke="null" id="svg_16" d="m1194.18446,997.8904c4.735,13.975 7.137,28.592 7.137,43.5c0,74.752 -60.816,135.568 -135.569,135.568s-135.57,-60.816 -135.57,-135.568c0,-74.754 60.816,-135.568 135.569,-135.568c14.91,0 29.527,2.4 43.5,7.137l0,-30.169c-14.114,-3.869 -28.691,-5.832 -43.499,-5.832c-90.667,0 -164.431,73.764 -164.431,164.432s73.764,164.432 164.431,164.432s164.43,-73.764 164.43,-164.432c0,-14.807 -1.962,-29.385 -5.831,-43.5l-30.167,0z"/>
     </g>
     <g stroke="null" id="svg_17">
      <polygon fill="#363ba0" stroke="null" id="svg_18" points="1185.9796142578125,921.069291472435 1185.9796142578125,889.5403608083725 1163.3074951171875,889.5403608083725 1163.3074951171875,921.069291472435 1131.967529296875,921.069291472435 1131.967529296875,943.7393354177475 1163.3074951171875,943.7393354177475 1163.3074951171875,975.2673505544662 1185.9796142578125,975.2673505544662 1185.9796142578125,943.7393354177475 1217.506591796875,943.7393354177475 1217.506591796875,921.069291472435 "/>
     </g>
    </g>
    <g stroke="null" transform="matrix(0.6691518087755656,0,0,0.6691518087755656,-512.149883575419,-511.84750910637615) " id="svg_19"/>
    <g stroke="null" transform="matrix(0.6691518087755656,0,0,0.6691518087755656,-512.149883575419,-511.84750910637615) " id="svg_20"/>
    <g stroke="null" transform="matrix(0.6691518087755656,0,0,0.6691518087755656,-512.149883575419,-511.84750910637615) " id="svg_21"/>
    <g stroke="null" transform="matrix(0.6691518087755656,0,0,0.6691518087755656,-512.149883575419,-511.84750910637615) " id="svg_22"/>
    <g stroke="null" transform="matrix(0.6691518087755656,0,0,0.6691518087755656,-512.149883575419,-511.84750910637615) " id="svg_23"/>
    <g stroke="null" transform="matrix(0.6691518087755656,0,0,0.6691518087755656,-512.149883575419,-511.84750910637615) " id="svg_24"/>
    <g stroke="null" transform="matrix(0.6691518087755656,0,0,0.6691518087755656,-512.149883575419,-511.84750910637615) " id="svg_25"/>
    <g stroke="null" transform="matrix(0.6691518087755656,0,0,0.6691518087755656,-512.149883575419,-511.84750910637615) " id="svg_26"/>
    <g stroke="null" transform="matrix(0.6691518087755656,0,0,0.6691518087755656,-512.149883575419,-511.84750910637615) " id="svg_27"/>
    <g stroke="null" transform="matrix(0.6691518087755656,0,0,0.6691518087755656,-512.149883575419,-511.84750910637615) " id="svg_28"/>
    <g stroke="null" transform="matrix(0.6691518087755656,0,0,0.6691518087755656,-512.149883575419,-511.84750910637615) " id="svg_29"/>
    <g stroke="null" transform="matrix(0.6691518087755656,0,0,0.6691518087755656,-512.149883575419,-511.84750910637615) " id="svg_30"/>
    <g stroke="null" transform="matrix(0.6691518087755656,0,0,0.6691518087755656,-512.149883575419,-511.84750910637615) " id="svg_31"/>
    <g stroke="null" transform="matrix(0.6691518087755656,0,0,0.6691518087755656,-512.149883575419,-511.84750910637615) " id="svg_32"/>
    <g stroke="null" transform="matrix(0.6691518087755656,0,0,0.6691518087755656,-512.149883575419,-511.84750910637615) " id="svg_33"/>
   </g>
   <text font-weight="bold" stroke="#ffffff" transform="matrix(4.443548243253583,0,0,5.320108565592746,-354.6466629175701,-1466.8480604910687) " xml:space="preserve" text-anchor="start" font-family="'Courier New', Courier, monospace" font-size="15" id="svg_35" y="346.428421" x="111.321388" stroke-width="0" fill="#363ba0">Bar</text>
  </g>
 </g>
</svg>