<svg width="400" height="400" xmlns="http://www.w3.org/2000/svg">
 <!-- Created with Method Draw - http://github.com/duopixel/Method-Draw/ -->

 <g>
  <title>background</title>
  <rect fill="none" id="canvas_background" height="402" width="402" y="-1" x="-1"/>
  <g display="none" overflow="visible" y="0" x="0" height="100%" width="100%" id="canvasGrid">
   <rect fill="url(#gridpattern)" stroke-width="0" y="0" x="0" height="100%" width="100%"/>
  </g>
 </g>
 <g>
  <title>Layer 1</title>
  <rect stroke="#ffffff" id="svg_3" height="392.999994" width="259" y="4" x="72.5" stroke-width="8" fill="none"/>
  <g stroke="null" stroke-opacity="0" id="svg_100">
   <g stroke="null" transform="matrix(0.4194857501789656,0,0,0.4194857501789656,-741.1306526938732,-722.9064669244317) " id="svg_78">
    <g stroke="null" id="svg_79">
     <g stroke="null" id="svg_80">
      <path stroke="#000000" fill="#ffffff" id="svg_81" d="m2136.867326,2100.028062c0,-5.896 -4.771,-10.667 -10.667,-10.667c-5.896,0 -10.667,4.771 -10.667,10.667c0,28.01 30.896,66.469 34.417,70.771c2.115,2.563 5.177,3.896 8.26,3.896c2.375,0 4.771,-0.792 6.76,-2.417c4.552,-3.74 5.208,-10.458 1.479,-15.021c-11.436,-13.937 -29.582,-41.792 -29.582,-57.229z"/>
      <path stroke="#000000" fill="#ffffff" id="svg_82" d="m2360.867326,2089.361062c-5.896,0 -10.667,4.771 -10.667,10.667c0,15.385 -18.146,43.271 -29.583,57.24c-3.729,4.552 -3.063,11.271 1.49,15.01c1.979,1.625 4.375,2.417 6.76,2.417c3.083,0 6.135,-1.333 8.25,-3.896c3.521,-4.302 34.417,-42.76 34.417,-70.771c0,-5.896 -4.771,-10.667 -10.667,-10.667z"/>
      <path stroke="#000000" fill="#ffffff" id="svg_83" d="m2243.534326,2089.361062c-5.896,0 -10.667,4.771 -10.667,10.667l0,64c0,5.896 4.771,10.667 10.667,10.667s10.667,-4.771 10.667,-10.667l0,-64c-0.001,-5.896 -4.772,-10.667 -10.667,-10.667z"/>
      <path stroke="#000000" fill="#ffffff" id="svg_84" d="m2360.867326,1918.695062c-6.464,0 -13.219,0.855 -20.234,2.158c-23.493,-27.386 -58.27,-44.825 -97.099,-44.825s-73.607,17.439 -97.099,44.824c-7.016,-1.302 -13.771,-2.158 -20.234,-2.158c-64.699,0.001 -117.334,52.636 -117.334,117.334c0,44.333 25,84.635 64.25,104.562l-0.208,161.198c-0.01,11.635 4.51,22.573 12.729,30.802c8.229,8.24 19.156,12.771 30.792,12.771l254.25,0c24,0 43.521,-19.521 43.521,-43.521l0,-161.406c39.104,-19.979 64,-60.219 64,-104.406c-0.001,-64.698 -52.636,-117.333 -117.334,-117.333zm32,383.146c0,12.229 -9.958,22.188 -22.188,22.188l-254.25,0c-5.927,0 -11.5,-2.313 -15.698,-6.51c-4.188,-4.198 -6.5,-9.771 -6.49,-15.708l0.056,-41.783l298.57,0l0,41.813zm6.604,-178.011c-0.563,0.229 -1.094,0.5 -1.594,0.823c-1.344,0.833 -2.448,1.938 -3.271,3.208c-0.833,1.26 -1.396,2.719 -1.625,4.281c-0.094,0.594 -0.125,1.188 -0.115,1.792l0,104.76l-298.542,0l0.137,-104.615c0.01,-0.583 -0.021,-1.177 -0.104,-1.75c-0.229,-1.615 -0.823,-3.115 -1.688,-4.417c-0.813,-1.219 -1.875,-2.281 -3.167,-3.094c-0.531,-0.333 -1.094,-0.625 -1.677,-0.865c-35.01,-15.31 -57.625,-49.79 -57.625,-87.925c0,-52.938 43.063,-96 96,-96c2.069,0 4.253,0.25 6.396,0.419c-10.792,18.756 -17.063,40.43 -17.063,63.581c0,5.896 4.771,10.667 10.667,10.667c5.896,0 10.667,-4.771 10.667,-10.667c0,-58.813 47.854,-106.667 106.667,-106.667s106.666,47.854 106.666,106.667c0,5.896 4.771,10.667 10.667,10.667c5.896,0 10.667,-4.771 10.667,-10.667c0,-23.151 -6.271,-44.824 -17.063,-63.581c2.143,-0.169 4.327,-0.419 6.396,-0.419c52.938,0 96,43.063 96,96c0,38 -22.521,72.437 -57.396,87.802z"/>
     </g>
    </g>
   </g>
   <g stroke="null" transform="matrix(0.4194857501789656,0,0,0.4194857501789656,-741.1306526938732,-722.9064669244317) " id="svg_85"/>
   <g stroke="null" transform="matrix(0.4194857501789656,0,0,0.4194857501789656,-741.1306526938732,-722.9064669244317) " id="svg_86"/>
   <g stroke="null" transform="matrix(0.4194857501789656,0,0,0.4194857501789656,-741.1306526938732,-722.9064669244317) " id="svg_87"/>
   <g stroke="null" transform="matrix(0.4194857501789656,0,0,0.4194857501789656,-741.1306526938732,-722.9064669244317) " id="svg_88"/>
   <g stroke="null" transform="matrix(0.4194857501789656,0,0,0.4194857501789656,-741.1306526938732,-722.9064669244317) " id="svg_89"/>
   <g stroke="null" transform="matrix(0.4194857501789656,0,0,0.4194857501789656,-741.1306526938732,-722.9064669244317) " id="svg_90"/>
   <g stroke="null" transform="matrix(0.4194857501789656,0,0,0.4194857501789656,-741.1306526938732,-722.9064669244317) " id="svg_91"/>
   <g stroke="null" transform="matrix(0.4194857501789656,0,0,0.4194857501789656,-741.1306526938732,-722.9064669244317) " id="svg_92"/>
   <g stroke="null" transform="matrix(0.4194857501789656,0,0,0.4194857501789656,-741.1306526938732,-722.9064669244317) " id="svg_93"/>
   <g stroke="null" transform="matrix(0.4194857501789656,0,0,0.4194857501789656,-741.1306526938732,-722.9064669244317) " id="svg_94"/>
   <g stroke="null" transform="matrix(0.4194857501789656,0,0,0.4194857501789656,-741.1306526938732,-722.9064669244317) " id="svg_95"/>
   <g stroke="null" transform="matrix(0.4194857501789656,0,0,0.4194857501789656,-741.1306526938732,-722.9064669244317) " id="svg_96"/>
   <g stroke="null" transform="matrix(0.4194857501789656,0,0,0.4194857501789656,-741.1306526938732,-722.9064669244317) " id="svg_97"/>
   <g stroke="null" transform="matrix(0.4194857501789656,0,0,0.4194857501789656,-741.1306526938732,-722.9064669244317) " id="svg_98"/>
   <g stroke="null" transform="matrix(0.4194857501789656,0,0,0.4194857501789656,-741.1306526938732,-722.9064669244317) " id="svg_99"/>
  </g>
  <text stroke="#ffffff" transform="matrix(3.107692241668701,0,0,3.107692241668701,-243.43845391273499,-721.8845927715302) " font-weight="bold" xml:space="preserve" text-anchor="start" font-family="'Courier New', Courier, monospace" font-size="15" id="svg_101" y="348.064356" x="112.638614" stroke-width="0" fill="#ffffff">Kitchen</text>
 </g>
</svg>