<svg width="400" height="400" xmlns="http://www.w3.org/2000/svg">
 <!-- Created with Method Draw - http://github.com/duopixel/Method-Draw/ -->

 <g>
  <title>background</title>
  <rect fill="none" id="canvas_background" height="402" width="402" y="-1" x="-1"/>
  <g display="none" overflow="visible" y="0" x="0" height="100%" width="100%" id="canvasGrid">
   <rect fill="url(#gridpattern)" stroke-width="0" y="0" x="0" height="100%" width="100%"/>
  </g>
 </g>
 <g>
  <title>Layer 1</title>
  <rect stroke="#ffffff" id="svg_3" height="392.999994" width="259" y="4" x="70.5" stroke-width="8" fill="none"/>
  <text stroke="#ffffff" transform="matrix(3.107692241668701,0,0,3.107692241668701,-243.43845391273499,-721.8845927715302) " font-weight="bold" xml:space="preserve" text-anchor="start" font-family="'Courier New', Courier, monospace" font-size="15" id="svg_101" y="348.064356" x="106.364949" stroke-width="0" fill="#ffffff">Restroom</text>
  <g stroke="null" id="svg_132">
   <g stroke="null" transform="matrix(0.40108806447675555,0,0,0.40108806447675555,-1031.960848356568,-1045.880157876418) " id="svg_106">
    <g stroke="null" id="svg_107">
     <g stroke="null" id="svg_108">
      <path fill="#ffffff" stroke="null" id="svg_109" d="m3266.347327,3063.93077l-20,-130c-1.5,-9.8 -9.9,-17 -19.8,-17l-90,0c-9.9,0 -18.3,7.2 -19.8,17l-20,130c-0.9,5.8 0.8,11.6 4.6,16.1c3.8,4.4 9.3,7 15.2,7l130,0c5.8,0 11.4,-2.5 15.2,-7s5.5,-10.3 4.6,-16.1zm-126.5,-17l13.8,-90l55.7,0l13.8,90l-83.3,0z"/>
      <path fill="#ffffff" stroke="null" id="svg_110" d="m3181.547327,2888.93077c35.5,0 64.3,-28.9 64.3,-64.3c0,-35.5 -28.9,-64.3 -64.3,-64.3c-35.5,0 -64.3,28.9 -64.3,64.3c0,35.5 28.8,64.3 64.3,64.3zm0,-88.6c13.4,0 24.3,10.9 24.3,24.3s-10.9,24.3 -24.3,24.3c-13.4,0 -24.3,-10.9 -24.3,-24.3s10.9,-24.3 24.3,-24.3z"/>
      <path fill="#ffffff" stroke="null" id="svg_111" d="m2961.547327,2888.93077c35.5,0 64.3,-28.9 64.3,-64.3c0,-35.5 -28.9,-64.3 -64.3,-64.3c-35.5,0 -64.3,28.9 -64.3,64.3c0,35.5 28.8,64.3 64.3,64.3zm0,-88.6c13.4,0 24.3,10.9 24.3,24.3s-10.9,24.3 -24.3,24.3s-24.3,-10.9 -24.3,-24.3s10.9,-24.3 24.3,-24.3z"/>
      <path fill="#ffffff" stroke="null" id="svg_112" d="m2926.547327,3112.33077c-11,0 -20,9 -20,20l0,120c0,11 9,20 20,20s20,-9 20,-20l0,-120c0,-11 -9,-20 -20,-20z"/>
      <path fill="#ffffff" stroke="null" id="svg_113" d="m3146.547327,3112.33077c-11,0 -20,9 -20,20l0,120c0,11 9,20 20,20s20,-9 20,-20l0,-120c0,-11 -9,-20 -20,-20z"/>
      <path fill="#ffffff" stroke="null" id="svg_114" d="m3216.547327,3112.33077c-11,0 -20,9 -20,20l0,120c0,11 9,20 20,20s20,-9 20,-20l0,-120c0,-11 -9,-20 -20,-20z"/>
      <path fill="#ffffff" stroke="null" id="svg_115" d="m3026.547327,2916.93077l-130,0c-5.8,0 -11.4,2.5 -15.2,7c-3.8,4.4 -5.5,10.3 -4.6,16.1l20,130c1.5,9.8 9.9,17 19.8,17l90,0c9.9,0 18.3,-7.2 19.8,-17l20,-130c0.9,-5.8 -0.8,-11.6 -4.6,-16.1c-3.8,-4.4 -9.4,-7 -15.2,-7zm-37.2,130l-55.6,0l-13.8,-90l83.4,0l-14,90z"/>
      <path fill="#ffffff" stroke="null" id="svg_116" d="m2996.547327,3112.33077c-11,0 -20,9 -20,20l0,120c0,11 9,20 20,20s20,-9 20,-20l0,-120c0,-11 -9,-20 -20,-20z"/>
     </g>
    </g>
   </g>
   <g stroke="null" transform="matrix(0.40108806447675555,0,0,0.40108806447675555,-1031.960848356568,-1045.880157876418) " id="svg_117"/>
   <g stroke="null" transform="matrix(0.40108806447675555,0,0,0.40108806447675555,-1031.960848356568,-1045.880157876418) " id="svg_118"/>
   <g stroke="null" transform="matrix(0.40108806447675555,0,0,0.40108806447675555,-1031.960848356568,-1045.880157876418) " id="svg_119"/>
   <g stroke="null" transform="matrix(0.40108806447675555,0,0,0.40108806447675555,-1031.960848356568,-1045.880157876418) " id="svg_120"/>
   <g stroke="null" transform="matrix(0.40108806447675555,0,0,0.40108806447675555,-1031.960848356568,-1045.880157876418) " id="svg_121"/>
   <g stroke="null" transform="matrix(0.40108806447675555,0,0,0.40108806447675555,-1031.960848356568,-1045.880157876418) " id="svg_122"/>
   <g stroke="null" transform="matrix(0.40108806447675555,0,0,0.40108806447675555,-1031.960848356568,-1045.880157876418) " id="svg_123"/>
   <g stroke="null" transform="matrix(0.40108806447675555,0,0,0.40108806447675555,-1031.960848356568,-1045.880157876418) " id="svg_124"/>
   <g stroke="null" transform="matrix(0.40108806447675555,0,0,0.40108806447675555,-1031.960848356568,-1045.880157876418) " id="svg_125"/>
   <g stroke="null" transform="matrix(0.40108806447675555,0,0,0.40108806447675555,-1031.960848356568,-1045.880157876418) " id="svg_126"/>
   <g stroke="null" transform="matrix(0.40108806447675555,0,0,0.40108806447675555,-1031.960848356568,-1045.880157876418) " id="svg_127"/>
   <g stroke="null" transform="matrix(0.40108806447675555,0,0,0.40108806447675555,-1031.960848356568,-1045.880157876418) " id="svg_128"/>
   <g stroke="null" transform="matrix(0.40108806447675555,0,0,0.40108806447675555,-1031.960848356568,-1045.880157876418) " id="svg_129"/>
   <g stroke="null" transform="matrix(0.40108806447675555,0,0,0.40108806447675555,-1031.960848356568,-1045.880157876418) " id="svg_130"/>
   <g stroke="null" transform="matrix(0.40108806447675555,0,0,0.40108806447675555,-1031.960848356568,-1045.880157876418) " id="svg_131"/>
  </g>
 </g>
</svg>