<svg width="400" height="400" xmlns="http://www.w3.org/2000/svg">
 <!-- Created with Method Draw - http://github.com/duopixel/Method-Draw/ -->

 <g>
  <title>background</title>
  <rect x="-1" y="-1" width="402" height="402" id="canvas_background" fill="none"/>
  <g id="canvasGrid" display="none">
   <rect id="svg_1" width="100%" height="100%" x="0" y="0" stroke-width="0" fill="url(#gridpattern)"/>
  </g>
 </g>
 <g>
  <title>Layer 1</title>
  <rect stroke="#cccccc" fill="#ffffff" stroke-width="3" x="70.5" y="4.000008" width="259" height="394.999987" id="svg_3" rx="50"/>
  <text fill="#363ba0" stroke-width="0" x="102.32956" y="345.488591" id="svg_35" font-size="15" font-family="'Courier New', Courier, monospace" text-anchor="start" xml:space="preserve" transform="matrix(4.443548243253583,0,0,5.320108565592746,-354.6466629175701,-1466.8480604910687) " stroke="#ffffff" font-weight="bold">Table</text>
  <g id="svg_73" stroke="null">
   <g id="svg_40" transform="matrix(0.409613745823502,0,0,0.409613745823502,-1088.5851183558318,-1074.718046507064) " stroke="null">
    <g id="svg_41" stroke="null">
     <path d="m3276.2921,3108.078008l-248.446,-248.447c-1.661,-1.661 -3.953,-2.534 -6.292,-2.418c-2.346,0.122 -4.53,1.232 -6.01,3.054c-0.462,0.569 -11.327,14.202 -12.111,37.356c-1.007,29.773 14.246,60.636 45.34,91.73l62.233,62.233c5.365,5.365 12.499,8.32 20.089,8.32c7.588,0 14.722,-2.955 20.087,-8.32c0.427,-0.427 0.913,-0.516 1.247,-0.516c0.333,0 0.819,0.09 1.246,0.516l10.058,10.058c0.385,0.385 0.226,1.377 -0.133,2.157c-4.909,10.735 -2.599,23.559 5.751,31.908l59.655,59.656c6.519,6.519 15.081,9.778 23.643,9.778c8.563,0 17.125,-3.259 23.643,-9.778c13.038,-13.037 13.038,-34.25 0,-47.287zm-11.727,35.558c-6.569,6.569 -17.258,6.569 -23.828,0l-59.655,-59.656c-3.476,-3.476 -4.439,-8.811 -2.395,-13.279c3.347,-7.321 2.082,-15.479 -3.225,-20.785l-10.058,-10.058c-3.466,-3.466 -8.075,-5.375 -12.976,-5.375c-4.902,0 -9.51,1.91 -12.976,5.375c-2.233,2.233 -5.201,3.462 -8.358,3.462c-3.157,0 -6.126,-1.23 -8.359,-3.462l-62.233,-62.233c-48.158,-48.158 -42.879,-83.249 -36.647,-98.526l240.71,240.709c6.57,6.57 6.57,17.259 0,23.828z" id="svg_42" fill="#363ba0" stroke="null"/>
    </g>
   </g>
   <g id="svg_43" transform="matrix(0.409613745823502,0,0,0.409613745823502,-1088.5851183558318,-1074.718046507064) " stroke="null">
    <g id="svg_44" stroke="null">
     <path d="m3283.7971,2876.684008c-3.239,-3.239 -8.491,-3.239 -11.728,0l-52.931,52.931c-3.24,3.239 -3.24,8.491 0,11.73c1.619,1.619 3.742,2.43 5.864,2.43c2.122,0 4.245,-0.809 5.864,-2.43l52.931,-52.932c3.238,-3.239 3.238,-8.491 0,-11.729z" id="svg_45" fill="#363ba0" stroke="null"/>
    </g>
   </g>
   <g id="svg_46" transform="matrix(0.409613745823502,0,0,0.409613745823502,-1088.5851183558318,-1074.718046507064) " stroke="null">
    <g id="svg_47" stroke="null">
     <path d="m3261.2641,2847.380008c-3.239,-3.239 -8.491,-3.239 -11.728,0l-53.954,53.954c-8.272,8.271 -13.154,18.78 -13.394,28.833l-0.37,15.434l-15.036,15.036c-3.239,3.239 -3.239,8.491 0,11.728c1.619,1.62 3.741,2.43 5.864,2.43c2.122,0 4.245,-0.81 5.864,-2.43l17.383,-17.383c1.506,-1.506 2.375,-3.535 2.427,-5.665l0.45,-18.753c0.138,-5.749 3.33,-12.292 8.54,-17.503l53.953,-53.953c3.24,-3.239 3.24,-8.491 0.001,-11.728z" id="svg_48" fill="#363ba0" stroke="null"/>
    </g>
   </g>
   <g id="svg_49" transform="matrix(0.409613745823502,0,0,0.409613745823502,-1088.5851183558318,-1074.718046507064) " stroke="null">
    <g id="svg_50" stroke="null">
     <path d="m3119.4811,3076.557008c-3.238,-3.239 -8.489,-3.239 -11.728,0l-66.353,66.353c-3.183,3.183 -7.414,4.935 -11.914,4.935s-8.732,-1.753 -11.914,-4.935c-3.183,-3.183 -4.935,-7.414 -4.935,-11.914c0,-4.501 1.753,-8.732 4.935,-11.914l64.05,-64.05c3.239,-3.239 3.239,-8.491 0,-11.728c-3.239,-3.239 -8.491,-3.239 -11.728,0l-64.05,64.05c-6.315,6.315 -9.793,14.712 -9.793,23.643c0,8.932 3.479,17.328 9.793,23.643c6.314,6.315 14.712,9.793 23.643,9.793c8.931,0 17.327,-3.479 23.643,-9.793l66.353,-66.353c3.237,-3.241 3.237,-8.493 -0.002,-11.73z" id="svg_51" fill="#363ba0" stroke="null"/>
    </g>
   </g>
   <g id="svg_52" transform="matrix(0.409613745823502,0,0,0.409613745823502,-1088.5851183558318,-1074.718046507064) " stroke="null">
    <g id="svg_53" stroke="null">
     <path d="m3314.3431,2900.461008c-3.239,-3.239 -8.491,-3.239 -11.728,0l-53.952,53.952c-5.125,5.125 -11.695,8.106 -17.676,8.042l-19.496,-0.296c-2.221,-0.031 -4.405,0.842 -5.99,2.428l-17.384,17.384c-3.239,3.239 -3.239,8.491 0,11.728c1.619,1.619 3.742,2.43 5.864,2.43c2.122,0 4.245,-0.809 5.864,-2.43l14.902,-14.902l15.988,0.242c10.504,0.161 21.301,-4.542 29.656,-12.898l53.952,-53.952c3.239,-3.239 3.239,-8.49 0,-11.728z" id="svg_54" fill="#363ba0" stroke="null"/>
    </g>
   </g>
   <g id="svg_55" transform="matrix(0.409613745823502,0,0,0.409613745823502,-1088.5851183558318,-1074.718046507064) " stroke="null">
    <g id="svg_56" stroke="null">
     <path d="m3326.8731,2826.004008c-48.351,-48.353 -112.639,-74.981 -181.019,-74.981s-132.668,26.628 -181.019,74.981s-74.981,112.639 -74.981,181.019s26.628,132.668 74.981,181.019s112.639,74.981 181.019,74.981s132.668,-26.628 181.019,-74.981s74.981,-112.639 74.981,-181.019s-26.628,-132.668 -74.981,-181.019zm-11.728,350.31c-45.22,45.219 -105.341,70.122 -169.291,70.122s-124.071,-24.903 -169.291,-70.122c-45.218,-45.22 -70.122,-105.342 -70.122,-169.291s24.904,-124.071 70.122,-169.291c45.22,-45.218 105.342,-70.122 169.291,-70.122s124.071,24.903 169.291,70.122c45.219,45.22 70.122,105.341 70.122,169.291s-24.904,124.071 -70.122,169.291z" id="svg_57" fill="#363ba0" stroke="null"/>
    </g>
   </g>
   <g id="svg_58" transform="matrix(0.409613745823502,0,0,0.409613745823502,-1088.5851183558318,-1074.718046507064) " stroke="null"/>
   <g id="svg_59" transform="matrix(0.409613745823502,0,0,0.409613745823502,-1088.5851183558318,-1074.718046507064) " stroke="null"/>
   <g id="svg_60" transform="matrix(0.409613745823502,0,0,0.409613745823502,-1088.5851183558318,-1074.718046507064) " stroke="null"/>
   <g id="svg_61" transform="matrix(0.409613745823502,0,0,0.409613745823502,-1088.5851183558318,-1074.718046507064) " stroke="null"/>
   <g id="svg_62" transform="matrix(0.409613745823502,0,0,0.409613745823502,-1088.5851183558318,-1074.718046507064) " stroke="null"/>
   <g id="svg_63" transform="matrix(0.409613745823502,0,0,0.409613745823502,-1088.5851183558318,-1074.718046507064) " stroke="null"/>
   <g id="svg_64" transform="matrix(0.409613745823502,0,0,0.409613745823502,-1088.5851183558318,-1074.718046507064) " stroke="null"/>
   <g id="svg_65" transform="matrix(0.409613745823502,0,0,0.409613745823502,-1088.5851183558318,-1074.718046507064) " stroke="null"/>
   <g id="svg_66" transform="matrix(0.409613745823502,0,0,0.409613745823502,-1088.5851183558318,-1074.718046507064) " stroke="null"/>
   <g id="svg_67" transform="matrix(0.409613745823502,0,0,0.409613745823502,-1088.5851183558318,-1074.718046507064) " stroke="null"/>
   <g id="svg_68" transform="matrix(0.409613745823502,0,0,0.409613745823502,-1088.5851183558318,-1074.718046507064) " stroke="null"/>
   <g id="svg_69" transform="matrix(0.409613745823502,0,0,0.409613745823502,-1088.5851183558318,-1074.718046507064) " stroke="null"/>
   <g id="svg_70" transform="matrix(0.409613745823502,0,0,0.409613745823502,-1088.5851183558318,-1074.718046507064) " stroke="null"/>
   <g id="svg_71" transform="matrix(0.409613745823502,0,0,0.409613745823502,-1088.5851183558318,-1074.718046507064) " stroke="null"/>
   <g id="svg_72" transform="matrix(0.409613745823502,0,0,0.409613745823502,-1088.5851183558318,-1074.718046507064) " stroke="null"/>
  </g>
 </g>
</svg>