<svg width="400" height="400" xmlns="http://www.w3.org/2000/svg">
 <!-- Created with Method Draw - http://github.com/duopixel/Method-Draw/ -->

 <g>
  <title>background</title>
  <rect fill="none" id="canvas_background" height="402" width="402" y="-1" x="-1"/>
  <g display="none" overflow="visible" y="0" x="0" height="100%" width="100%" id="canvasGrid">
   <rect fill="url(#gridpattern)" stroke-width="0" y="0" x="0" height="100%" width="100%"/>
  </g>
 </g>
 <g>
  <title>Layer 1</title>
  <rect stroke="#ffffff" id="svg_3" height="392.999994" width="259" y="4" x="70.5" stroke-width="8" fill="none"/>
  <text style="cursor: move;" stroke="#ffffff" transform="matrix(3.107692241668701,0,0,3.107692241668701,-243.43845391273499,-721.8845927715302) " font-weight="bold" xml:space="preserve" text-anchor="start" font-family="'Courier New', Courier, monospace" font-size="15" id="svg_101" y="348.064356" x="124.871145" stroke-width="0" fill="#ffffff">Wall</text>
  <g stroke="null" id="svg_184">
   <g stroke="null" transform="matrix(0.31976999558844,0,0,0.31976999558844,-677.2879035749702,-675.3846018240795) " id="svg_163">
    <g stroke="null" id="svg_164">
     <path fill="#ffffff" stroke="null" id="svg_165" d="m2984.496709,2329.873154l-121,0c-8.284,0 -15,6.716 -15,15l0,60c0,8.284 6.716,15 15,15l121,0c8.284,0 15,-6.716 15,-15l0,-60c0,-8.284 -6.716,-15 -15,-15zm-15,60l-91,0l0,-30l91,0l0,30z"/>
    </g>
   </g>
   <g stroke="null" transform="matrix(0.31976999558844,0,0,0.31976999558844,-677.2879035749702,-675.3846018240795) " id="svg_166">
    <g stroke="null" id="svg_167">
     <path fill="#ffffff" stroke="null" id="svg_168" d="m2984.496709,2570.873154c-16.827,0 -91.666,0 -106,0l0,-45c0,-8.284 -6.716,-15 -15,-15l-45,0l0,-45c0,-8.284 -6.716,-15 -15,-15c-6.599,0 -293.235,0 -301,0c-8.284,0 -15,6.716 -15,15c0,16.79 0,344.33 0,361c0,8.284 6.716,15 15,15c11.835,0 477.989,0 482,0c8.284,0 15,-6.716 15,-15c0,-3.467 0,-239.458 0,-241c0,-8.284 -6.716,-15 -15,-15zm-76,30l0,30c-9.539,0 -80.461,0 -90,0l0,-30c9.539,0 80.461,0 90,0zm-60,90c-9.539,0 -80.461,0 -90,0l0,-30c9.539,0 80.461,0 90,0l0,30zm60,30l0,30c-9.539,0 -80.461,0 -90,0l0,-30c9.539,0 80.461,0 90,0zm-270,-30l0,-30c9.539,0 80.461,0 90,0l0,30c-9.539,0 -80.461,0 -90,0zm30,30l0,30c-9.539,0 -80.461,0 -90,0l0,-30c9.539,0 80.461,0 90,0zm60,-150c-9.539,0 -80.461,0 -90,0l0,-30c9.539,0 80.461,0 90,0l0,30zm60,30l0,30c-9.539,0 -80.461,0 -90,0l0,-30c9.539,0 80.461,0 90,0zm-120,0l0,30c-9.539,0 -80.461,0 -90,0l0,-30c9.539,0 80.461,0 90,0zm30,120c9.539,0 80.461,0 90,0l0,30c-9.539,0 -80.461,0 -90,0l0,-30zm150,-180l0,30c-9.539,0 -80.461,0 -90,0l0,-30c9.539,0 80.461,0 90,0zm-150,-60l90,0l0,30c-9.539,0 -80.461,0 -90,0l0,-30zm-120,0l90,0l0,30c-9.539,0 -80.461,0 -90,0l0,-30zm-61,0l31,0l0,30l-31,0l0,-30zm0,60c9.702,0 81.471,0 91,0l0,30c-9.529,0 -81.298,0 -91,0l0,-30zm0,60l31,0l0,30l-31,0l0,-30zm0,60c9.702,0 81.471,0 91,0l0,30c-9.529,0 -81.298,0 -91,0l0,-30zm0,60l31,0l0,30l-31,0l0,-30zm91,91l-91,0l0,-31c9.702,0 81.471,0 91,0l0,31zm120,0l-90,0l0,-31c9.539,0 80.461,0 90,0l0,31zm120,0l-90,0l0,-31c9.539,0 80.461,0 90,0l0,31zm121,0l-91,0l0,-31c9.529,0 81.298,0 91,0l0,31zm0,-61l-31,0l0,-30l31,0l0,30zm0,-60c-9.702,0 -81.471,0 -91,0l0,-30c9.529,0 81.298,0 91,0l0,30zm0,-60l-31,0l0,-30l31,0l0,30z"/>
    </g>
   </g>
   <g stroke="null" transform="matrix(0.31976999558844,0,0,0.31976999558844,-677.2879035749702,-675.3846018240795) " id="svg_169"/>
   <g stroke="null" transform="matrix(0.31976999558844,0,0,0.31976999558844,-677.2879035749702,-675.3846018240795) " id="svg_170"/>
   <g stroke="null" transform="matrix(0.31976999558844,0,0,0.31976999558844,-677.2879035749702,-675.3846018240795) " id="svg_171"/>
   <g stroke="null" transform="matrix(0.31976999558844,0,0,0.31976999558844,-677.2879035749702,-675.3846018240795) " id="svg_172"/>
   <g stroke="null" transform="matrix(0.31976999558844,0,0,0.31976999558844,-677.2879035749702,-675.3846018240795) " id="svg_173"/>
   <g stroke="null" transform="matrix(0.31976999558844,0,0,0.31976999558844,-677.2879035749702,-675.3846018240795) " id="svg_174"/>
   <g stroke="null" transform="matrix(0.31976999558844,0,0,0.31976999558844,-677.2879035749702,-675.3846018240795) " id="svg_175"/>
   <g stroke="null" transform="matrix(0.31976999558844,0,0,0.31976999558844,-677.2879035749702,-675.3846018240795) " id="svg_176"/>
   <g stroke="null" transform="matrix(0.31976999558844,0,0,0.31976999558844,-677.2879035749702,-675.3846018240795) " id="svg_177"/>
   <g stroke="null" transform="matrix(0.31976999558844,0,0,0.31976999558844,-677.2879035749702,-675.3846018240795) " id="svg_178"/>
   <g stroke="null" transform="matrix(0.31976999558844,0,0,0.31976999558844,-677.2879035749702,-675.3846018240795) " id="svg_179"/>
   <g stroke="null" transform="matrix(0.31976999558844,0,0,0.31976999558844,-677.2879035749702,-675.3846018240795) " id="svg_180"/>
   <g stroke="null" transform="matrix(0.31976999558844,0,0,0.31976999558844,-677.2879035749702,-675.3846018240795) " id="svg_181"/>
   <g stroke="null" transform="matrix(0.31976999558844,0,0,0.31976999558844,-677.2879035749702,-675.3846018240795) " id="svg_182"/>
   <g stroke="null" transform="matrix(0.31976999558844,0,0,0.31976999558844,-677.2879035749702,-675.3846018240795) " id="svg_183"/>
  </g>
 </g>
</svg>